<svg width="25" height="24" viewBox="0 0 25 24" fill="none" xmlns="http://www.w3.org/2000/svg">
<path d="M13.5719 2.75L13.7514 4.1065L13.9264 4.1295L14.5214 3.017L15.4599 3.347C15.3989 4.023 14.7029 5.1825 15.9254 5.6285C15.1259 5.8965 14.7019 6.167 13.9099 5.622C13.4539 5.308 12.7664 5.656 12.4989 5.7695C12.1709 5.908 11.7869 6.0545 11.8539 6.6085C11.8714 6.759 12.0194 6.905 11.6699 7.3535C10.9759 8.13 10.4819 8.051 9.61344 9.6075C8.54844 8.204 9.10044 5.303 10.8819 4.2705L10.6689 3.428L11.5854 3.029L12.3029 4.154L12.7084 2.75H13.5719Z" stroke="#05162C" stroke-linecap="round" stroke-linejoin="round"/>
<path d="M13.3265 18.6325C14.0926 17.0097 14.4025 15.209 14.223 13.4235C14.061 11.8625 14.1465 11.989 14.317 11.3035C15.556 12.292 17.106 12.121 18.372 11.811C18.5513 12.0958 18.6723 12.4134 18.7278 12.7453C18.7834 13.0772 18.7724 13.4169 18.6955 13.7445C18.3127 16.129 17.2026 18.337 15.517 20.0665C14.1175 21.501 12.7165 21.6425 11.1305 20.4315C8.89752 18.726 7.01502 16.7265 6.27252 13.9005C5.86902 12.3645 7.11752 9.95201 8.60252 9.38851C8.95252 9.24351 9.35502 9.33101 9.61352 9.60751M9.61352 9.60751C10.4058 10.357 11.0084 11.2842 11.3715 12.3125C11.6455 12.99 11.878 13.684 12.1475 14.421C10.8695 10.8195 10.3145 10.1885 9.61352 9.60751ZM9.61352 9.60751C10.056 8.54001 11.286 7.72551 11.6695 7.35351C11.8195 7.19201 11.898 6.97651 11.885 6.75651C11.8483 6.66527 11.8316 6.56724 11.8359 6.469C11.8402 6.37076 11.8655 6.27458 11.91 6.18689C11.9545 6.0992 12.0172 6.02204 12.094 5.96058C12.1707 5.89911 12.2597 5.85477 12.355 5.83051C12.9455 5.58451 13.51 5.25051 14.175 5.79751C14.3462 5.88053 14.5325 5.92778 14.7226 5.93637C14.9127 5.94497 15.1025 5.91473 15.2805 5.84751C16.2355 5.54351 17.1605 5.14751 17.978 4.83301L19.072 7.03801C18.4035 7.50001 17.582 8.03151 16.8025 8.61901C16.1926 9.06671 15.6193 9.56227 15.088 10.101" stroke="#05162C" stroke-linecap="round" stroke-linejoin="round"/>
<path d="M9.6135 9.6075C8.3115 8.4885 6.8 10.9225 6.3885 12.1035C5.96188 11.3707 5.82541 10.5045 6.006 9.676C6.4795 7.948 6.989 6.229 7.4645 4.573H10.4535C10.1667 4.82005 9.9207 5.11079 9.7245 5.4345C9.41139 5.94903 9.2075 6.52248 9.12552 7.11919C9.04355 7.7159 9.08524 8.32309 9.248 8.903C9.3415 9.1515 9.4645 9.388 9.6135 9.6075ZM16.803 8.619C17.4366 9.25206 17.7965 10.1084 17.8055 11.004C17.8065 11.18 17.8545 11.929 17.698 11.953C16.8747 12.1238 16.021 12.0768 15.2215 11.8165C14.182 11.435 14.3095 11.0425 14.7705 10.4765C15.3719 9.77883 16.0542 9.15528 16.803 8.619Z" stroke="#05162C" stroke-linecap="round" stroke-linejoin="round"/>
</svg>
