<svg width="24" height="22" viewBox="0 0 24 22" fill="none" xmlns="http://www.w3.org/2000/svg">
<path d="M12 5.99996C11.5584 6.0069 11.12 6.07705 10.6983 6.20829C10.8934 6.55134 10.9972 6.93867 11 7.33329C11 7.63971 10.9396 7.94313 10.8224 8.22622C10.7051 8.50931 10.5332 8.76654 10.3166 8.98321C10.0999 9.19988 9.84267 9.37175 9.55957 9.48901C9.27648 9.60627 8.97306 9.66663 8.66664 9.66663C8.27202 9.66389 7.88469 9.56003 7.54164 9.36496C7.27099 10.3036 7.30254 11.3037 7.63181 12.2234C7.96109 13.1431 8.5714 13.936 9.3763 14.4896C10.1812 15.0432 11.1399 15.3295 12.1165 15.308C13.0932 15.2865 14.0384 14.9582 14.8181 14.3697C15.5978 13.7812 16.1726 12.9622 16.4611 12.0289C16.7495 11.0955 16.737 10.0951 16.4253 9.16924C16.1135 8.24341 15.5184 7.43912 14.7242 6.87031C13.9299 6.30151 12.9769 5.99701 12 5.99996ZM23.855 10.0583C21.5954 5.64954 17.1221 2.66663 12 2.66663C6.87789 2.66663 2.40331 5.65163 0.144977 10.0587C0.0496613 10.2473 0 10.4556 0 10.6668C0 10.8781 0.0496613 11.0864 0.144977 11.275C2.40456 15.6837 6.87789 18.6666 12 18.6666C17.1221 18.6666 21.5966 15.6816 23.855 11.2745C23.9503 11.086 24 10.8777 24 10.6664C24 10.4551 23.9503 10.2468 23.855 10.0583ZM12 16.6666C7.88956 16.6666 4.12123 14.375 2.08623 10.6666C4.12123 6.95829 7.88914 4.66663 12 4.66663C16.1108 4.66663 19.8787 6.95829 21.9137 10.6666C19.8791 14.375 16.1108 16.6666 12 16.6666Z" fill="#05162C"/>
</svg>
