<svg width="25" height="24" viewBox="0 0 25 24" fill="none" xmlns="http://www.w3.org/2000/svg">
<path fill-rule="evenodd" clip-rule="evenodd" d="M15.474 2.12003C15.7073 2.24583 15.8811 2.45911 15.9572 2.713C16.0334 2.96689 16.0056 3.24061 15.88 3.47403L12.906 8.99803C11.973 10.73 10.549 12.541 8.98799 13.791C8.34399 14.306 7.66099 14.953 7.26199 15.626C6.87699 16.274 6.83599 16.783 7.12199 17.26C7.43399 17.78 7.94199 18.149 8.52999 18.285C8.98698 17.8106 9.53321 17.4311 10.1373 17.1684C10.7414 16.9057 11.3914 16.765 12.0501 16.7543C12.7087 16.7436 13.363 16.8632 13.9753 17.1061C14.5876 17.3491 15.1459 17.7107 15.618 18.17L14.225 19.605C13.8049 19.1959 13.2742 18.9189 12.6983 18.8081C12.1225 18.6974 11.5268 18.7579 10.985 18.982C11.299 19.129 11.605 19.301 11.889 19.498C12.619 20.006 13.405 20.84 13.405 22H11.405C11.405 21.815 11.271 21.505 10.745 21.14C10.248 20.792 9.58499 20.537 9.02899 20.425L8.20499 20.261C7.62695 20.1454 7.07945 19.9103 6.59761 19.5707C6.11576 19.2311 5.71022 18.7945 5.40699 18.289C4.60599 16.953 4.94099 15.617 5.54199 14.605C6.12799 13.617 7.03799 12.789 7.73799 12.229C9.05999 11.172 10.32 9.58203 11.145 8.05003L14.12 2.52603C14.2456 2.29256 14.4588 2.11853 14.7127 2.04221C14.9666 1.96589 15.2405 1.99452 15.474 2.12003ZM17.5 17.645C17.5018 16.9141 17.2349 16.208 16.75 15.661L18.25 14.337C18.74 14.8923 19.1004 15.5496 19.3054 16.2612C19.5104 16.9728 19.5547 17.7211 19.4352 18.452C19.3157 19.1828 19.0353 19.878 18.6143 20.4873C18.1934 21.0966 17.6423 21.6047 17.001 21.975L15.999 20.244C16.899 19.724 17.5 18.754 17.5 17.644" fill="#05162C"/>
</svg>
