<svg width="10" height="10" viewBox="0 0 10 10" fill="none" xmlns="http://www.w3.org/2000/svg">
<path d="M7.34375 1.0791C8.53837 1.0791 9.49994 2.06493 9.5 3.49902C9.5 4.24656 9.21045 4.89567 8.63086 5.60449C8.0386 6.32876 7.18139 7.07162 6.0918 8.0127C5.76103 8.29839 5.38896 8.62067 5 8.96387C4.61098 8.62064 4.23884 8.29828 3.9082 8.0127C2.81848 7.07151 1.96143 6.3288 1.36914 5.60449C0.789523 4.89565 0.5 4.24656 0.5 3.49902C0.500057 2.06493 1.46163 1.0791 2.65625 1.0791C3.08372 1.0791 3.47322 1.2137 3.82617 1.49023C4.17284 1.76196 4.41318 2.11764 4.55957 2.38867L5 3.2041L5.44043 2.38867C5.58683 2.11764 5.82717 1.76195 6.17383 1.49023C6.52678 1.2137 6.91628 1.0791 7.34375 1.0791Z" stroke="#777EA5"/>
</svg>
